<svg width="320" height="262" viewBox="0 0 320 262" fill="none" xmlns="http://www.w3.org/2000/svg">
<g clip-path="url(#clip0_41_2853)">
<path d="M78.9851 239.067L79.6359 252.766L79.636 252.767C79.7457 255.082 78.93 257.346 77.3681 259.061C75.8063 260.775 73.6262 261.8 71.3075 261.91L71.0234 261.924L69.9578 239.495L78.9851 239.067Z" fill="#2F2E41"/>
<path d="M274.039 215.918C267.505 228.65 259.217 240.964 248.731 252.108C248.498 252.36 248.262 252.605 248.025 252.855L223.18 241.111C223.332 240.859 223.499 240.576 223.678 240.266C234.35 222.033 298.775 110.811 296.739 85.62C296.977 87.6976 304.613 156.405 274.039 215.918Z" fill="#E6E6E6"/>
<path d="M253.524 254.374C253.176 254.572 252.82 254.765 252.461 254.952L233.822 246.141C234.083 245.957 234.386 245.738 234.735 245.493C240.445 241.399 257.425 229.117 274.039 215.918C291.894 201.733 309.33 186.492 311.919 179.217C311.393 180.885 295.051 231.595 253.524 254.374Z" fill="#E6E6E6"/>
<path d="M31.004 261.377C46.89 261.377 59.7681 248.518 59.7681 232.656C59.7681 216.794 46.89 203.935 31.004 203.935C15.1181 203.935 2.23999 216.794 2.23999 232.656C2.23999 248.518 15.1181 261.377 31.004 261.377Z" fill="#6C63FF"/>
<path d="M42.5258 220.603H19.482C18.4637 220.605 17.4875 221.009 16.7675 221.728C16.0475 222.447 15.6425 223.422 15.6414 224.438V240.873C15.6425 241.89 16.0475 242.865 16.7675 243.584C17.4875 244.303 18.4637 244.707 19.482 244.708H42.5259C43.5441 244.707 44.5204 244.303 45.2404 243.584C45.9604 242.865 46.3654 241.89 46.3665 240.873V224.438C46.3654 223.422 45.9604 222.447 45.2403 221.728C44.5203 221.009 43.5441 220.605 42.5258 220.603ZM42.5258 222.795C42.6634 222.795 42.8004 222.813 42.9335 222.848L31.0066 232.348L19.1494 222.829C19.2588 222.806 19.3703 222.795 19.482 222.795H42.5258ZM42.5258 242.517H19.482C19.0456 242.516 18.6272 242.343 18.3187 242.035C18.0101 241.727 17.8365 241.309 17.836 240.873V224.586L30.3164 234.605C30.5107 234.761 30.7525 234.847 31.0018 234.847C31.2512 234.848 31.4933 234.763 31.6882 234.608L44.1719 224.665V240.873C44.1714 241.309 43.9978 241.727 43.6892 242.035C43.3806 242.343 42.9622 242.516 42.5258 242.517Z" fill="white"/>
<path d="M142.011 191.191L148.447 191.243C149.098 191.249 149.743 191.112 150.336 190.843C150.929 190.574 151.456 190.18 151.88 189.686C152.305 189.193 152.616 188.613 152.793 187.988C152.97 187.362 153.008 186.705 152.905 186.063C152.794 185.372 152.521 184.717 152.11 184.15C151.699 183.583 151.16 183.121 150.538 182.8C149.915 182.479 149.225 182.308 148.524 182.302C147.823 182.295 147.131 182.453 146.502 182.763L140.433 185.753L119.674 190.376L110.78 181.297L105.672 189.698L117.673 198.956L142.011 191.191Z" fill="#FFB8B8"/>
<path d="M140.805 257.585L133.222 259.041C128.043 242.739 122.431 227.301 122.431 215.361C115.101 223.506 106.012 228.166 95.3083 229.63L96.4749 211.575L105.224 206.916L118.615 200.745C119.787 200.204 121.052 199.892 122.342 199.824C124.849 199.692 127.316 200.491 129.268 202.067C131.22 203.643 132.52 205.884 132.917 208.359L140.805 257.585Z" fill="#2F2E41"/>
<path d="M104.495 227.446L101.473 229.739C100.173 230.725 98.6381 231.355 97.0195 231.565C95.4009 231.776 93.7553 231.561 92.246 230.94C83.5897 224.461 77.4399 226.373 71.8662 236.151C65.1806 228.617 63.5312 217.736 69.4978 206.479L102.599 207.207L109.307 205.168L104.495 227.446Z" fill="#2F2E41"/>
<path d="M93.4711 261.185C91.5744 261.768 89.5327 261.665 87.7039 260.896C85.8751 260.127 84.3757 258.739 83.4685 256.977C80.4937 254.361 77.9837 250.615 75.8067 246.06C74.2447 242.719 72.9035 239.279 71.7915 235.762C70.2852 231.117 72.804 226.042 77.4921 224.652C77.6315 224.61 77.7726 224.571 77.9155 224.535C84.1739 222.93 90.6008 226.535 92.7401 232.623L98.9608 250.325C99.3282 251.37 99.4858 252.478 99.4246 253.585C99.3633 254.691 99.0843 255.775 98.6036 256.774C98.1229 257.773 97.4498 258.667 96.6228 259.407C95.7958 260.146 94.8312 260.715 93.7838 261.082C93.6803 261.118 93.576 261.153 93.4711 261.185Z" fill="#2F2E41"/>
<path opacity="0.2" d="M74.7476 244.044C74.7476 244.044 82.0387 252.198 83.4969 256.857L74.7476 244.044Z" fill="black"/>
<path d="M46.4698 205.564L44.0296 211.51C43.7827 212.112 43.6702 212.76 43.7 213.41C43.7298 214.059 43.9011 214.695 44.202 215.271C44.503 215.848 44.9263 216.352 45.4424 216.749C45.9585 217.145 46.5551 217.425 47.1905 217.568C47.8743 217.721 48.5847 217.712 49.2644 217.542C49.9442 217.371 50.5744 217.044 51.1042 216.585C51.6341 216.127 52.0489 215.551 52.3151 214.904C52.5814 214.257 52.6918 213.556 52.6373 212.858L52.1115 206.121L55.5257 185.159L67.2717 180.287L61.358 172.43L48.291 180.116L46.4698 205.564Z" fill="#FFB8B8"/>
<path d="M104.787 206.479C96.4072 220.533 79.7021 225.975 65.3944 214.97C67.9112 206.713 76.0372 183.892 70.7876 183.018C59.6416 187.685 59.6254 176.727 57.5405 171.243L82.9135 161.924L96.6208 165.71L99.4306 166.706C101.259 167.354 102.845 168.545 103.975 170.12C105.106 171.695 105.726 173.577 105.752 175.515C99.9944 183.82 95.7319 192.681 104.787 206.479Z" fill="#6C63FF"/>
<path d="M107.995 195.122L97.9331 186.822L101.287 167.457L114.994 182.018L107.995 195.122Z" fill="#6C63FF"/>
<path d="M274.95 62.0888H273.512V22.7611C273.512 16.7245 271.11 10.9351 266.835 6.66659C262.56 2.39804 256.762 0 250.716 0H167.269C161.223 0 155.425 2.39804 151.15 6.66659C146.875 10.9351 144.474 16.7245 144.474 22.7611V238.516C144.474 244.553 146.875 250.342 151.15 254.611C155.425 258.879 161.223 261.277 167.269 261.277H250.716C256.761 261.277 262.56 258.879 266.835 254.611C271.11 250.342 273.511 244.553 273.511 238.516V90.0828H274.949L274.95 62.0888Z" fill="#3F3D56"/>
<path d="M251.636 5.92112H240.743C241.245 7.14746 241.436 8.47805 241.301 9.79565C241.165 11.1133 240.708 12.3774 239.968 13.4768C239.228 14.5761 238.229 15.4769 237.058 16.0997C235.887 16.7225 234.581 17.0483 233.255 17.0482H185.449C184.123 17.0481 182.817 16.7223 181.646 16.0995C180.476 15.4768 179.477 14.5761 178.737 13.4769C177.997 12.3777 177.539 11.1138 177.404 9.79632C177.269 8.47889 177.46 7.14845 177.961 5.9222H167.785C163.27 5.9222 158.94 7.71309 155.748 10.9009C152.555 14.0887 150.761 18.4123 150.761 22.9205V238.358C150.761 242.866 152.555 247.19 155.748 250.377C158.94 253.565 163.27 255.356 167.785 255.356H251.633C256.148 255.356 260.478 253.565 263.67 250.377C266.863 247.19 268.657 242.866 268.657 238.358V22.9195C268.657 18.4112 266.863 14.0876 263.67 10.8998C260.478 7.71201 256.148 5.92111 251.633 5.92111L251.636 5.92112Z" fill="white"/>
<path d="M209.855 243.317C215.018 243.317 219.203 239.138 219.203 233.982C219.203 228.827 215.018 224.648 209.855 224.648C204.692 224.648 200.506 228.827 200.506 233.982C200.506 239.138 204.692 243.317 209.855 243.317Z" fill="#E6E6E6"/>
<path d="M171.931 147.66C171.047 147.66 170.328 148.479 170.328 149.486C170.328 150.493 171.047 151.313 171.931 151.313H247.487C248.371 151.313 249.09 150.493 249.09 149.486C249.09 148.479 248.371 147.66 247.487 147.66H171.931Z" fill="#E6E6E6"/>
<path d="M171.931 190.741C171.047 190.741 170.328 191.56 170.328 192.567C170.328 193.574 171.047 194.394 171.931 194.394H247.487C248.371 194.394 249.09 193.574 249.09 192.567C249.09 191.56 248.371 190.741 247.487 190.741H171.931Z" fill="#E6E6E6"/>
<path d="M171.931 158.619C171.047 158.619 170.328 159.439 170.328 160.446C170.328 161.453 171.047 162.272 171.931 162.272H204.443C205.327 162.272 206.046 161.453 206.046 160.446C206.046 159.439 205.327 158.619 204.443 158.619H171.931Z" fill="#E6E6E6"/>
<path d="M171.931 169.066C171.047 169.066 170.328 169.885 170.328 170.892C170.328 171.899 171.047 172.719 171.931 172.719H247.487C248.371 172.719 249.09 171.899 249.09 170.892C249.09 169.885 248.371 169.066 247.487 169.066H171.931Z" fill="#E6E6E6"/>
<path d="M171.931 180.025C171.047 180.025 170.328 180.845 170.328 181.852C170.328 182.859 171.047 183.679 171.931 183.679H204.443C205.327 183.679 206.046 182.859 206.046 181.852C206.046 180.845 205.327 180.025 204.443 180.025H171.931Z" fill="#E6E6E6"/>
<path d="M186.194 64.4877H233.228C233.748 64.4883 234.246 64.6947 234.614 65.0615C234.981 65.4284 235.188 65.9257 235.188 66.4445V115.355C235.188 115.874 234.981 116.371 234.614 116.738C234.246 117.105 233.748 117.311 233.228 117.312H186.194C185.675 117.311 185.177 117.105 184.809 116.738C184.442 116.371 184.235 115.874 184.235 115.355V66.4445C184.235 65.9257 184.442 65.4284 184.809 65.0615C185.177 64.6947 185.675 64.4883 186.194 64.4877Z" fill="#6C63FF"/>
<path d="M223.207 107.225C223.381 107.226 223.555 107.192 223.716 107.125C223.878 107.059 224.025 106.961 224.149 106.837C224.273 106.714 224.371 106.568 224.438 106.406C224.505 106.245 224.54 106.072 224.54 105.898C224.54 105.723 224.505 105.55 224.439 105.389C224.372 105.227 224.274 105.081 224.15 104.957C224.026 104.834 223.879 104.736 223.718 104.669C223.556 104.602 223.383 104.568 223.208 104.568H196.217C196.042 104.568 195.868 104.602 195.707 104.669C195.545 104.735 195.398 104.833 195.274 104.956C195.15 105.08 195.052 105.226 194.985 105.387C194.918 105.549 194.883 105.722 194.883 105.896C194.883 106.071 194.918 106.244 194.985 106.405C195.051 106.567 195.15 106.713 195.273 106.837C195.397 106.96 195.544 107.058 195.706 107.125C195.867 107.191 196.04 107.226 196.215 107.225H223.207Z" fill="white"/>
<path d="M223.206 99.3982C223.559 99.3982 223.898 99.2582 224.147 99.0091C224.397 98.7599 224.537 98.422 224.537 98.0697C224.537 97.7174 224.397 97.3794 224.147 97.1303C223.898 96.8812 223.559 96.7412 223.206 96.7412H196.216C195.864 96.741 195.525 96.8808 195.275 97.1299C195.026 97.3789 194.885 97.7167 194.885 98.069C194.885 98.4214 195.025 98.7594 195.274 99.0086C195.524 99.2579 195.862 99.398 196.215 99.3982H223.206Z" fill="white"/>
<path d="M209.711 74.5739C211.368 74.5739 212.987 75.0643 214.364 75.9832C215.741 76.902 216.815 78.208 217.449 79.736C218.083 81.264 218.248 82.9454 217.925 84.5675C217.602 86.1896 216.804 87.6796 215.633 88.8491C214.462 90.0186 212.97 90.815 211.345 91.1377C209.721 91.4603 208.037 91.2947 206.506 90.6618C204.976 90.0289 203.668 88.9571 202.748 87.5819C201.828 86.2068 201.336 84.59 201.336 82.9361C201.339 80.7191 202.222 78.5936 203.792 77.0259C205.362 75.4582 207.491 74.5764 209.711 74.5739Z" fill="white"/>
<path d="M102.854 159.389H77.9915C77.4801 159.389 76.9898 159.185 76.6281 158.824C76.2665 158.463 76.0631 157.974 76.0625 157.463V146.762C76.0625 142.96 77.5755 139.312 80.2686 136.623C82.9617 133.934 86.6143 132.424 90.423 132.424C94.2316 132.424 97.8842 133.934 100.577 136.623C103.27 139.312 104.783 142.96 104.783 146.762V157.463C104.783 157.974 104.579 158.463 104.218 158.824C103.856 159.185 103.366 159.389 102.854 159.389Z" fill="#2F2E41"/>
<path d="M102.406 153.274C105.196 148.18 103.32 141.792 98.2182 139.007C93.1161 136.223 86.7189 138.095 83.9298 143.189C81.1407 148.284 83.0158 154.671 88.118 157.456C93.2202 160.241 99.6173 158.369 102.406 153.274Z" fill="#FFB6B6"/>
<path d="M108.181 147.833H92.9777L92.8218 145.653L92.0423 147.833H89.7014L89.3924 143.513L87.8475 147.833H83.3179V147.619C83.3212 144.611 84.5191 141.728 86.6488 139.602C88.7784 137.475 91.6658 136.279 94.6775 136.276H96.821C99.8327 136.279 102.72 137.475 104.85 139.602C106.979 141.728 108.177 144.611 108.181 147.619V147.833Z" fill="#2F2E41"/>
<path d="M92.8534 161.387C92.7389 161.387 92.6247 161.376 92.512 161.357L81.3796 159.395V141.025H93.6342L93.3308 141.378C89.1096 146.293 92.2898 154.264 94.5611 158.578C94.7286 158.894 94.8032 159.25 94.7765 159.607C94.7498 159.963 94.6228 160.305 94.4101 160.592C94.232 160.838 93.9981 161.039 93.7274 161.177C93.4568 161.315 93.1573 161.387 92.8534 161.387Z" fill="#2F2E41"/>
<path d="M129.917 252.087L143.652 252.086H143.653C145.974 252.087 148.2 253.007 149.842 254.646C151.483 256.285 152.406 258.508 152.406 260.826V261.11L129.918 261.111L129.917 252.087Z" fill="#2F2E41"/>
<path d="M319.64 262H0.359551C0.264192 262 0.172738 261.962 0.10531 261.895C0.0378808 261.828 0 261.736 0 261.641C0 261.546 0.0378808 261.454 0.10531 261.387C0.172738 261.32 0.264192 261.282 0.359551 261.282H319.64C319.736 261.282 319.827 261.32 319.895 261.387C319.962 261.454 320 261.546 320 261.641C320 261.736 319.962 261.828 319.895 261.895C319.827 261.962 319.736 262 319.64 262Z" fill="#CACACA"/>
</g>
<defs>
<clipPath id="clip0_41_2853">
<rect width="320" height="262" fill="white"/>
</clipPath>
</defs>
</svg>
