<svg width="322" height="223" viewBox="0 0 322 223" fill="none" xmlns="http://www.w3.org/2000/svg">
<g clip-path="url(#clip0_41_2885)">
<path d="M64.4571 223C99.7797 223 128.414 220.829 128.414 218.15C128.414 215.471 99.7797 213.3 64.4571 213.3C29.1346 213.3 0.5 215.471 0.5 218.15C0.5 220.829 29.1346 223 64.4571 223Z" fill="#E6E6E6"/>
<path d="M49.3877 49.4798C60.5182 44.7528 74.3813 47.7478 87.9202 49.8264C88.0462 47.3092 89.5733 44.2455 87.9736 42.4894C86.0302 40.3558 86.2091 38.114 87.3786 35.8592C90.3691 30.0936 86.0845 23.9586 81.7583 18.8575C80.7832 17.7103 79.5509 16.8089 78.1614 16.2266C76.7719 15.6443 75.2645 15.3974 73.7615 15.5061L65.7476 16.0776C63.7975 16.2167 61.9365 16.9471 60.4135 18.1712C58.8906 19.3952 57.7783 21.0545 57.2256 22.9269C55.312 25.5255 54.2878 28.1169 54.9327 30.6947C52.0665 32.6505 51.5849 35.0113 52.8729 37.6727C53.965 39.3484 53.9534 40.9796 52.8232 42.5656C51.3389 44.5876 50.2021 46.8422 49.4593 49.237L49.3877 49.4798Z" fill="#2F2E41"/>
<path d="M313.894 192.78H87.0411C85.0237 192.78 83.089 191.98 81.6625 190.555C80.236 189.131 79.4346 187.199 79.4346 185.185C161.669 175.642 242.357 175.642 321.5 185.185C321.5 187.199 320.699 189.131 319.272 190.555C317.846 191.98 315.911 192.78 313.894 192.78Z" fill="#2F2E41"/>
<path d="M321.5 185.632L79.4346 185.185L107.489 138.051L107.623 137.828V33.9498C107.623 32.689 107.872 31.4404 108.355 30.2755C108.838 29.1106 109.547 28.0522 110.439 27.1606C111.332 26.2691 112.392 25.5619 113.559 25.0794C114.726 24.597 115.976 24.3487 117.239 24.3488H282.354C283.616 24.3487 284.867 24.597 286.033 25.0794C287.2 25.5619 288.26 26.2691 289.153 27.1606C290.046 28.0522 290.754 29.1106 291.237 30.2755C291.72 31.4404 291.969 32.689 291.969 33.9498V138.542L321.5 185.632Z" fill="#3F3D56"/>
<path d="M117.019 31.0503C116.189 31.0512 115.393 31.381 114.806 31.9673C114.218 32.5536 113.888 33.3485 113.887 34.1777V128.892C113.888 129.721 114.218 130.516 114.806 131.103C115.393 131.689 116.189 132.019 117.019 132.02H283.915C284.745 132.019 285.541 131.689 286.128 131.103C286.716 130.516 287.046 129.721 287.047 128.892V34.1777C287.046 33.3485 286.716 32.5536 286.128 31.9674C285.541 31.3811 284.745 31.0513 283.915 31.0503H117.019Z" fill="white"/>
<path d="M117.719 144.529C117.462 144.53 117.211 144.603 116.995 144.741C116.779 144.88 116.607 145.077 116.499 145.309L107.855 164.073C107.761 164.278 107.72 164.502 107.735 164.726C107.751 164.951 107.823 165.167 107.944 165.357C108.065 165.546 108.233 165.702 108.43 165.809C108.628 165.917 108.849 165.974 109.074 165.974H290.863C291.092 165.974 291.317 165.915 291.517 165.804C291.716 165.693 291.885 165.533 292.005 165.338C292.125 165.144 292.194 164.922 292.204 164.694C292.214 164.466 292.166 164.238 292.063 164.034L282.667 145.27C282.556 145.047 282.385 144.859 282.173 144.728C281.961 144.597 281.716 144.528 281.467 144.529H117.719Z" fill="#2F2E41"/>
<path d="M199.796 29.4866C200.908 29.4866 201.81 28.5865 201.81 27.4762C201.81 26.3658 200.908 25.4657 199.796 25.4657C198.684 25.4657 197.783 26.3658 197.783 27.4762C197.783 28.5865 198.684 29.4866 199.796 29.4866Z" fill="white"/>
<path d="M181.928 169.548C181.633 169.548 181.346 169.646 181.112 169.825C180.877 170.004 180.709 170.255 180.632 170.54L178.463 178.582C178.41 178.78 178.403 178.988 178.443 179.19C178.482 179.392 178.568 179.582 178.694 179.745C178.819 179.909 178.98 180.041 179.165 180.132C179.35 180.223 179.553 180.27 179.759 180.27H220.997C221.211 180.27 221.422 180.219 221.612 180.121C221.802 180.024 221.966 179.882 222.09 179.708C222.214 179.533 222.295 179.332 222.325 179.121C222.356 178.909 222.335 178.694 222.265 178.492L219.477 170.45C219.386 170.187 219.215 169.958 218.987 169.797C218.76 169.635 218.488 169.548 218.209 169.548H181.928Z" fill="#2F2E41"/>
<path d="M291.969 136.264V138.051H107.489L107.628 137.828V136.264H291.969Z" fill="#2F2E41"/>
<path d="M286.823 62.5474C304.121 62.5474 318.144 48.5457 318.144 31.2737C318.144 14.0017 304.121 0 286.823 0C269.525 0 255.502 14.0017 255.502 31.2737C255.502 48.5457 269.525 62.5474 286.823 62.5474Z" fill="#6C63FF"/>
<path d="M299.799 44.9001H273.847C273.373 44.8996 272.918 44.7112 272.582 44.3761C272.247 44.0411 272.058 43.5868 272.058 43.113V27.4762C272.058 27.0024 272.247 26.5481 272.582 26.2131C272.918 25.878 273.373 25.6896 273.847 25.6891H299.799C300.273 25.6896 300.728 25.878 301.064 26.2131C301.399 26.5481 301.588 27.0024 301.589 27.4762V43.113C301.588 43.5868 301.4 44.0411 301.064 44.3761C300.728 44.7112 300.273 44.8996 299.799 44.9001ZM273.847 27.4762V43.113H299.8L299.799 27.4762L273.847 27.4762Z" fill="white"/>
<path d="M294.877 27.4762H278.77V20.3279C278.77 15.1504 282.157 11.3925 286.823 11.3925C291.49 11.3925 294.877 15.1504 294.877 20.3279L294.877 27.4762ZM280.559 25.6891H293.088V20.3279C293.088 16.1191 290.512 13.1796 286.823 13.1796C283.135 13.1796 280.559 16.1192 280.559 20.3279L280.559 25.6891Z" fill="white"/>
<path d="M286.823 36.6349C287.812 36.6349 288.613 35.8348 288.613 34.8478C288.613 33.8608 287.812 33.0607 286.823 33.0607C285.835 33.0607 285.034 33.8608 285.034 34.8478C285.034 35.8348 285.835 36.6349 286.823 36.6349Z" fill="white"/>
<path d="M264.959 99.8934H135.976C135.343 99.8927 134.736 99.6411 134.288 99.194C133.84 98.7469 133.588 98.1407 133.587 97.5084V65.5615C133.588 64.9292 133.84 64.323 134.288 63.8759C134.736 63.4288 135.343 63.1772 135.976 63.1765H264.959C265.592 63.1772 266.199 63.4288 266.647 63.8759C267.095 64.323 267.347 64.9292 267.347 65.5615V97.5084C267.347 98.1407 267.095 98.7469 266.647 99.194C266.199 99.6411 265.592 99.8927 264.959 99.8934ZM135.976 64.1305C135.596 64.1309 135.232 64.2818 134.963 64.5501C134.694 64.8184 134.543 65.1821 134.543 65.5615V97.5084C134.543 97.8878 134.694 98.2516 134.963 98.5198C135.232 98.7881 135.596 98.939 135.976 98.9394H264.959C265.339 98.939 265.703 98.7881 265.972 98.5198C266.24 98.2516 266.392 97.8878 266.392 97.5084V65.5615C266.392 65.1821 266.24 64.8183 265.972 64.5501C265.703 64.2818 265.339 64.1309 264.959 64.1305L135.976 64.1305Z" fill="#E6E6E6"/>
<path d="M156.017 90.0243C161.39 90.0243 165.747 85.6747 165.747 80.3092C165.747 74.9436 161.39 70.594 156.017 70.594C150.643 70.594 146.287 74.9436 146.287 80.3092C146.287 85.6747 150.643 90.0243 156.017 90.0243Z" fill="#E6E6E6"/>
<path d="M178.488 73.8324C178.275 73.8321 178.064 73.8737 177.867 73.9549C177.67 74.0362 177.491 74.1554 177.34 74.3058C177.189 74.4562 177.07 74.6348 176.988 74.8314C176.906 75.028 176.864 75.2388 176.864 75.4516C176.864 75.6645 176.906 75.8752 176.988 76.0718C177.07 76.2684 177.189 76.4471 177.34 76.5974C177.491 76.7478 177.67 76.867 177.867 76.9483C178.064 77.0295 178.275 77.0711 178.488 77.0708H254.937C255.367 77.0708 255.779 76.9002 256.083 76.5965C256.387 76.2929 256.558 75.881 256.558 75.4516C256.558 75.0222 256.387 74.6103 256.083 74.3067C255.779 74.003 255.367 73.8324 254.937 73.8324H178.488Z" fill="#E6E6E6"/>
<path d="M178.488 83.5475C178.058 83.5475 177.646 83.7181 177.342 84.0218C177.038 84.3254 176.867 84.7373 176.867 85.1667C176.867 85.5961 177.038 86.008 177.342 86.3116C177.646 86.6153 178.058 86.7859 178.488 86.7859H211.384C211.814 86.7859 212.227 86.6153 212.531 86.3116C212.835 86.008 213.006 85.5961 213.006 85.1667C213.006 84.7373 212.835 84.3254 212.531 84.0218C212.227 83.7181 211.814 83.5475 211.384 83.5475H178.488Z" fill="#E6E6E6"/>
<path d="M107.172 84.2025L83.3282 96.8597L83.0264 86.3121C90.8087 85.0148 98.2128 82.7563 105.059 79.0794L107.553 72.9277C107.824 72.2574 108.266 71.6691 108.834 71.2207C109.402 70.7723 110.078 70.4791 110.794 70.3699C111.51 70.2608 112.242 70.3394 112.918 70.5981C113.594 70.8567 114.192 71.2866 114.651 71.8454C115.324 72.6629 115.66 73.7052 115.592 74.761C115.524 75.8169 115.056 76.8073 114.284 77.5317L107.172 84.2025Z" fill="#FFB8B8"/>
<path d="M48.9126 157.281C48.7386 156.644 48.7017 155.977 48.8042 155.325C48.9067 154.673 49.1463 154.049 49.5073 153.496L54.745 145.47C55.9839 143.572 57.8848 142.2 60.079 141.622C62.2731 141.044 64.6041 141.301 66.6196 142.342C64.4184 146.083 64.7252 149.365 67.3798 152.218C63.2589 154.226 59.4501 156.819 56.0716 159.915C55.4548 160.335 54.7464 160.602 54.0056 160.693C53.2647 160.784 52.5128 160.697 51.8123 160.439C51.1119 160.181 50.4833 159.76 49.9789 159.211C49.4745 158.661 49.1089 158 48.9126 157.281Z" fill="#2F2E41"/>
<path d="M108.257 146.786C107.465 148.105 106.346 149.199 105.008 149.962C103.671 150.724 102.159 151.131 100.619 151.143L65.8225 151.406L64.3135 142.667L79.7061 138.146L66.728 128.201L80.9133 111.626L106.678 135.604C108.184 137.006 109.163 138.881 109.45 140.916C109.738 142.951 109.316 145.024 108.257 146.786Z" fill="#2F2E41"/>
<path d="M60.3898 206.555H52.2408C44.9241 156.478 37.4765 106.261 59.4844 87.5175L85.4405 91.7366L82.1206 113.736L67.6334 130.311L60.3898 206.555Z" fill="#2F2E41"/>
<path d="M67.5533 217.899C66.9154 218.073 66.2478 218.11 65.5946 218.008C64.9413 217.905 64.3172 217.666 63.7631 217.306L54.915 216.118C53.0137 214.881 51.6403 212.983 51.0613 210.792C50.4823 208.602 50.7389 206.274 51.7815 204.262C55.5286 206.459 58.8156 206.153 61.672 203.502C63.6902 207.571 67.0156 207.323 70.1915 210.751C70.612 211.367 70.879 212.074 70.9704 212.814C71.0617 213.553 70.9747 214.304 70.7166 215.004C70.4585 215.703 70.0367 216.331 69.4865 216.834C68.9363 217.338 68.2735 217.703 67.5533 217.899Z" fill="#2F2E41"/>
<path d="M79.706 54.0664L64.6152 50.45C67.1216 45.3275 67.328 39.6276 66.1243 33.5738L76.386 33.2724C76.7076 40.8005 77.6804 47.8336 79.706 54.0664Z" fill="#FFB8B8"/>
<path d="M83.8539 100.81C72.8684 108.285 65.1063 101.066 59.183 89.9284C60.006 83.1131 58.6733 74.9572 56.205 66.0953C55.1073 62.1865 55.5171 58.0088 57.3536 54.387C59.1901 50.7653 62.3197 47.9626 66.1247 46.5323L79.1028 51.9569C90.1227 60.9258 92.2917 70.641 88.1573 80.8876L83.8539 100.81Z" fill="#6C63FF"/>
<path d="M52.2412 61.6004L40.1685 67.929L61.5975 80.5862L64.5792 87.93C64.7782 88.4201 64.8752 88.9456 64.8641 89.4744C64.8531 90.0032 64.7343 90.5242 64.5151 91.0057C64.2958 91.4871 63.9806 91.919 63.5887 92.2748C63.1969 92.6307 62.7365 92.9031 62.2358 93.0756C61.6665 93.2716 61.0596 93.3333 60.4624 93.256C59.8653 93.1787 59.2942 92.9644 58.7939 92.6299C58.2935 92.2954 57.8775 91.8498 57.5784 91.3279C57.2794 90.8061 57.1053 90.2223 57.07 89.6221L56.7684 84.5039L29.5325 75.5296C28.6149 75.2272 27.7782 74.7203 27.0858 74.0472C26.3934 73.3742 25.8634 72.5526 25.5361 71.6448C25.059 70.3215 25.0347 68.8776 25.4671 67.539C25.8994 66.2005 26.764 65.0428 27.9255 64.2472L49.8267 49.2446L52.2412 61.6004Z" fill="#FFB8B8"/>
<path d="M64.3137 62.8059C59.2786 60.6026 54.7001 62.996 48.9211 64.9154L48.0156 48.9432C53.754 45.8893 59.2252 45.066 64.3137 47.4364L64.3137 62.8059Z" fill="#6C63FF"/>
<path d="M70.3366 41.184C75.6578 41.184 79.9715 36.8768 79.9715 31.5636C79.9715 26.2504 75.6578 21.9432 70.3366 21.9432C65.0154 21.9432 60.7017 26.2504 60.7017 31.5636C60.7017 36.8768 65.0154 41.184 70.3366 41.184Z" fill="#FFB8B8"/>
<path d="M81.8632 30.3497C72.3238 31.2826 65.0548 29.7249 60.4092 25.2894V21.7173H81.0536L81.8632 30.3497Z" fill="#2F2E41"/>
</g>
<defs>
<clipPath id="clip0_41_2885">
<rect width="321" height="223" fill="white" transform="translate(0.5)"/>
</clipPath>
</defs>
</svg>
