<svg width="364" height="205" viewBox="0 0 364 205" fill="none" xmlns="http://www.w3.org/2000/svg">
<g clip-path="url(#clip0_54_3466)">
<path d="M27.8107 204.897L27.4287 204.189C32.5509 201.412 38.9258 197.956 42.2555 192.284C45.5378 186.693 45.6114 179.101 42.4476 172.47C39.7552 166.827 34.8094 161.771 28.145 157.849C26.8305 157.076 25.4505 156.343 24.116 155.634C20.8903 153.92 17.5547 152.147 14.8044 149.633C11.0163 146.17 8.15016 140.359 10.2864 135.182C10.989 133.53 12.1396 132.108 13.6076 131.079C15.0755 130.049 16.8021 129.453 18.5912 129.357L18.6365 130.161C16.9975 130.248 15.4156 130.794 14.0705 131.737C12.7254 132.68 11.6708 133.982 11.0264 135.495C9.0413 140.306 11.7649 145.764 15.3457 149.038C18.0208 151.484 21.3107 153.232 24.4922 154.922C25.8343 155.635 27.2221 156.373 28.5518 157.155C35.3548 161.159 40.4106 166.334 43.1723 172.123C46.4498 178.992 46.3638 186.874 42.9477 192.693C39.5046 198.558 33.0207 202.073 27.8107 204.897Z" fill="#F1F1F1"/>
<path d="M23.6824 133.601C27.5642 133.601 30.711 132.069 30.711 130.179C30.711 128.289 27.5642 126.757 23.6824 126.757C19.8006 126.757 16.6538 128.289 16.6538 130.179C16.6538 132.069 19.8006 133.601 23.6824 133.601Z" fill="#F1F1F1"/>
<path d="M29.305 156.149C33.1868 156.149 36.3336 154.617 36.3336 152.727C36.3336 150.836 33.1868 149.304 29.305 149.304C25.4232 149.304 22.2764 150.836 22.2764 152.727C22.2764 154.617 25.4232 156.149 29.305 156.149Z" fill="#F1F1F1"/>
<path d="M16.4529 159.773C20.3347 159.773 23.4815 158.24 23.4815 156.35C23.4815 154.46 20.3347 152.928 16.4529 152.928C12.5711 152.928 9.42432 154.46 9.42432 156.35C9.42432 158.24 12.5711 159.773 16.4529 159.773Z" fill="#F1F1F1"/>
<path d="M36.5345 178.697C40.4163 178.697 43.5631 177.164 43.5631 175.274C43.5631 173.384 40.4163 171.852 36.5345 171.852C32.6527 171.852 29.5059 173.384 29.5059 175.274C29.5059 177.164 32.6527 178.697 36.5345 178.697Z" fill="#F1F1F1"/>
<path d="M50.5916 178.697C54.4734 178.697 57.6202 177.164 57.6202 175.274C57.6202 173.384 54.4734 171.852 50.5916 171.852C46.7098 171.852 43.563 173.384 43.563 175.274C43.563 177.164 46.7098 178.697 50.5916 178.697Z" fill="#F1F1F1"/>
<path d="M363.5 6.21243H137.462V113.739H363.5V6.21243Z" fill="#E6E6E6"/>
<path d="M357.037 15.433H143.925V105.146H357.037V15.433Z" fill="white"/>
<path d="M363.403 0H137.365V9.62671H363.403V0Z" fill="#6C63FF"/>
<path d="M144.502 6.23707C145.484 6.23707 146.281 5.43822 146.281 4.45279C146.281 3.46737 145.484 2.66852 144.502 2.66852C143.519 2.66852 142.722 3.46737 142.722 4.45279C142.722 5.43822 143.519 6.23707 144.502 6.23707Z" fill="white"/>
<path d="M151.257 6.23707C152.24 6.23707 153.037 5.43822 153.037 4.45279C153.037 3.46737 152.24 2.66852 151.257 2.66852C150.274 2.66852 149.478 3.46737 149.478 4.45279C149.478 5.43822 150.274 6.23707 151.257 6.23707Z" fill="white"/>
<path d="M158.013 6.23707C158.996 6.23707 159.793 5.43822 159.793 4.45279C159.793 3.46737 158.996 2.66852 158.013 2.66852C157.03 2.66852 156.233 3.46737 156.233 4.45279C156.233 5.43822 157.03 6.23707 158.013 6.23707Z" fill="white"/>
<path d="M239.245 36.7235C239.016 36.7235 238.797 36.8146 238.635 36.9767C238.473 37.1388 238.382 37.3587 238.382 37.588C238.382 37.8172 238.473 38.0371 238.635 38.1992C238.797 38.3613 239.016 38.4524 239.245 38.4524H286.559C286.787 38.4524 287.007 38.3613 287.168 38.1992C287.33 38.0371 287.421 37.8172 287.421 37.588C287.421 37.3587 287.33 37.1388 287.168 36.9767C287.007 36.8146 286.787 36.7235 286.559 36.7235H239.245Z" fill="#E6E6E6"/>
<path d="M239.245 41.9105C239.016 41.911 238.797 42.0023 238.636 42.1643C238.475 42.3264 238.384 42.546 238.384 42.7749C238.384 43.0038 238.475 43.2234 238.636 43.3855C238.797 43.5475 239.016 43.6388 239.245 43.6393H263.4C263.628 43.6388 263.847 43.5475 264.008 43.3855C264.169 43.2234 264.26 43.0038 264.26 42.7749C264.26 42.546 264.169 42.3264 264.008 42.1643C263.847 42.0023 263.628 41.911 263.4 41.9105H239.245Z" fill="#E6E6E6"/>
<path d="M238.054 67.0162C237.825 67.0162 237.606 67.1072 237.444 67.2694C237.282 67.4315 237.191 67.6513 237.191 67.8806C237.191 68.1098 237.282 68.3297 237.444 68.4918C237.606 68.6539 237.825 68.745 238.054 68.745H326.768C326.997 68.745 327.216 68.6539 327.378 68.4918C327.539 68.3297 327.63 68.1098 327.63 67.8806C327.63 67.6513 327.539 67.4315 327.378 67.2694C327.216 67.1072 326.997 67.0162 326.768 67.0162H238.054Z" fill="#E6E6E6"/>
<path d="M238.054 72.2031C237.825 72.2036 237.607 72.2949 237.445 72.457C237.284 72.619 237.193 72.8386 237.193 73.0675C237.193 73.2965 237.284 73.5161 237.445 73.6781C237.607 73.8402 237.825 73.9315 238.054 73.932H303.609C303.837 73.9315 304.056 73.8402 304.217 73.6781C304.378 73.5161 304.469 73.2965 304.469 73.0675C304.469 72.8386 304.378 72.619 304.217 72.457C304.056 72.2949 303.837 72.2036 303.609 72.2031H238.054Z" fill="#E6E6E6"/>
<path d="M238.054 77.2727C237.825 77.2732 237.607 77.3645 237.445 77.5266C237.284 77.6886 237.193 77.9082 237.193 78.1371C237.193 78.3661 237.284 78.5857 237.445 78.7477C237.607 78.9098 237.825 79.0011 238.054 79.0015H326.768C326.996 79.0011 327.215 78.9098 327.376 78.7477C327.538 78.5857 327.628 78.3661 327.628 78.1371C327.628 77.9082 327.538 77.6886 327.376 77.5266C327.215 77.3645 326.996 77.2732 326.768 77.2727H238.054Z" fill="#E6E6E6"/>
<path d="M238.054 82.4597C237.825 82.4602 237.607 82.5515 237.445 82.7135C237.284 82.8756 237.193 83.0952 237.193 83.3241C237.193 83.553 237.284 83.7726 237.445 83.9347C237.607 84.0967 237.825 84.188 238.054 84.1885H303.609C303.837 84.188 304.056 84.0967 304.217 83.9347C304.378 83.7726 304.469 83.553 304.469 83.3241C304.469 83.0952 304.378 82.8756 304.217 82.7135C304.056 82.5515 303.837 82.4602 303.609 82.4597H238.054Z" fill="#E6E6E6"/>
<path d="M191.673 70.5243C195.82 70.5243 199.182 67.1543 199.182 62.9973C199.182 58.8403 195.82 55.4703 191.673 55.4703C187.527 55.4703 184.165 58.8403 184.165 62.9973C184.165 67.1543 187.527 70.5243 191.673 70.5243Z" fill="#A0616A"/>
<path d="M189.296 56.9757C189.296 56.9757 192.8 57.9166 194.614 58.2929C196.429 58.6693 196.241 57.603 196.241 57.603C196.241 57.603 198.619 57.9166 198.494 57.6657C198.368 57.4148 199.495 56.0976 198.181 54.5922C196.867 53.0868 197.242 51.9577 197.242 51.9577H196.116L195.803 51.5186H194.051C194.051 51.5186 192.114 49.8159 188.673 50.3177C185.232 50.8195 181.162 52.1459 180.787 54.2158C180.736 54.4966 180.669 54.8085 180.591 55.1379C179.65 59.1206 181.649 62.847 183.723 66.3725C184.233 67.239 186.698 69.1283 186.635 67.832C186.572 66.5358 184.416 63.6245 185.917 63.4364C187.419 63.2482 189.984 59.422 189.296 56.9757Z" fill="#2F2E41"/>
<path d="M187.414 87.3307C185.965 87.2145 184.528 86.9777 183.117 86.6229L183.196 85.1219L183.854 73.1869L183.86 73.0954H197.086L199.161 84.0846L199.441 85.5673C198.893 85.7809 198.34 85.9822 197.774 86.1592C197.767 86.1592 197.767 86.1653 197.761 86.1653C196.976 86.4093 196.179 86.6229 195.375 86.7998C194.307 87.0309 193.226 87.198 192.137 87.3002C191.296 87.3839 190.451 87.4246 189.606 87.4222C188.875 87.4222 188.139 87.3917 187.414 87.3307Z" fill="#6C63FF"/>
<path d="M178.911 85.2073C178.363 84.9693 177.834 84.7131 177.31 84.4446L177.085 84.3287C176.933 84.2493 176.775 84.1639 176.623 84.0785C176.416 83.9626 176.215 83.8466 176.02 83.7307C175.831 83.6208 175.637 83.5049 175.448 83.389C175.436 83.3829 175.43 83.3768 175.418 83.3768C174.76 82.9558 174.115 82.5225 173.494 82.0527C173.391 81.9734 173.287 81.8941 173.184 81.8148L173.074 80.0575L173.232 79.9598L183.853 73.1869L183.999 73.0954L184.012 73.0893L185.509 73.0954V78.6846C186.355 79.911 186.927 82.4798 187.28 85.8419C187.329 86.3239 187.371 86.8182 187.414 87.3307C185.965 87.2144 184.527 86.9777 183.117 86.6229C182.965 86.5924 182.819 86.5558 182.666 86.5131C181.779 86.2804 180.906 85.9993 180.049 85.671C179.788 85.5734 179.532 85.4697 179.276 85.3659L179.252 85.3537C179.142 85.3049 179.021 85.2561 178.911 85.2073Z" fill="#2F2E41"/>
<path d="M176.623 84.0785C176.415 83.9626 176.215 83.8466 176.02 83.7307C175.831 83.6208 175.637 83.5049 175.448 83.389C175.436 83.3829 175.43 83.3768 175.418 83.3768C174.76 82.9558 174.115 82.5225 173.494 82.0527C173.391 81.9734 173.287 81.8941 173.184 81.8148C173.135 81.7721 173.086 81.7355 173.031 81.6927C172.642 81.3938 172.265 81.0826 171.899 80.7531C171.881 80.7409 171.869 80.7225 171.851 80.7104C172.219 80.4261 172.633 80.2054 173.074 80.0575L173.506 80.1856L176.586 81.1131L176.604 82.3639L176.623 84.0785Z" fill="#2F2E41"/>
<path d="M202.558 84.0968C202.375 84.1944 202.192 84.2921 202.01 84.3836C201.967 84.408 201.931 84.4263 201.894 84.4446C201.651 84.5667 201.413 84.6886 201.17 84.8046C201.164 84.8107 201.152 84.8107 201.152 84.8168C201.139 84.8229 201.121 84.829 201.109 84.8351C200.561 85.0975 200.007 85.3415 199.441 85.5673C198.894 85.7809 198.34 85.9823 197.774 86.1592C197.767 86.1592 197.767 86.1653 197.762 86.1653C196.976 86.4093 196.179 86.6229 195.375 86.7998C195.366 86.2986 195.432 85.7989 195.57 85.3171L195.576 85.2317L196.1 76.7381L195.4 73.0954L197.408 72.7964L208.455 78.7578C208.455 78.7578 207.238 79.9781 202.241 82.5775C201.799 82.8073 202.448 83.5721 202.558 84.0968Z" fill="#2F2E41"/>
<path d="M192.004 85.8358C191.212 85.909 190.409 85.9456 189.605 85.9456C188.826 85.9456 188.053 85.9151 187.28 85.8419C187.329 86.3239 187.371 86.8182 187.414 87.3307C188.139 87.3918 188.875 87.4222 189.605 87.4222C190.451 87.4246 191.296 87.3839 192.137 87.3002C193.226 87.198 194.307 87.0309 195.375 86.7999C195.366 86.2986 195.432 85.7989 195.57 85.3171L195.576 85.2317C194.401 85.5184 193.207 85.7203 192.004 85.8358ZM215.004 51.5929C213.718 47.8891 211.641 44.5112 208.919 41.6946C206.197 38.878 202.895 36.6905 199.243 35.2848C195.591 33.8791 191.676 33.2889 187.773 33.5554C183.87 33.8219 180.072 34.9387 176.644 36.8279C173.216 38.7171 170.24 41.3332 167.924 44.4939C165.608 47.6545 164.007 51.2836 163.234 55.128C162.461 58.9724 162.533 62.9397 163.446 66.7532C164.36 70.5666 166.092 74.1345 168.522 77.208C168.765 77.5131 169.015 77.8181 169.27 78.111C169.295 78.1354 169.307 78.1537 169.325 78.172C169.953 78.8985 170.622 79.5891 171.327 80.2405C171.498 80.3991 171.674 80.5578 171.851 80.7104C171.869 80.7225 171.881 80.7409 171.899 80.7531C172.265 81.0826 172.642 81.3937 173.031 81.6927C173.086 81.7354 173.135 81.772 173.184 81.8148C173.287 81.8941 173.391 81.9734 173.494 82.0527C174.115 82.5225 174.76 82.9558 175.418 83.3768C175.43 83.3768 175.436 83.3829 175.448 83.389C175.637 83.5049 175.831 83.6208 176.02 83.7307C176.215 83.8466 176.416 83.9625 176.623 84.0785C176.775 84.1639 176.933 84.2493 177.085 84.3286L177.31 84.4446C177.834 84.7131 178.363 84.9693 178.911 85.2073C179.021 85.2561 179.142 85.3049 179.252 85.3537L179.276 85.3659C179.532 85.4697 179.788 85.5734 180.049 85.671C180.906 85.9993 181.78 86.2804 182.667 86.5131C182.819 86.5558 182.965 86.5924 183.117 86.6229C184.527 86.9777 185.965 87.2145 187.414 87.3307C188.139 87.3918 188.875 87.4222 189.605 87.4222C190.451 87.4246 191.296 87.3839 192.137 87.3002C193.226 87.198 194.307 87.0309 195.375 86.7999C196.179 86.6229 196.976 86.4093 197.761 86.1653C197.767 86.1653 197.767 86.1592 197.774 86.1592C198.339 85.9822 198.893 85.7809 199.441 85.5673C200.007 85.3415 200.561 85.0975 201.109 84.8351C201.121 84.829 201.139 84.8229 201.151 84.8168C201.151 84.8107 201.164 84.8107 201.17 84.8046C201.413 84.6887 201.65 84.5666 201.894 84.4446C201.931 84.4263 201.967 84.408 202.01 84.3836C202.192 84.2921 202.375 84.1944 202.557 84.0968C202.57 84.0907 202.576 84.0846 202.588 84.0785C203.069 83.81 203.544 83.5293 204.012 83.2304C204.14 83.1511 204.268 83.0717 204.396 82.9802C204.584 82.8643 204.767 82.7361 204.943 82.608C205.181 82.4432 205.418 82.2724 205.649 82.0954C205.726 82.0459 205.8 81.9909 205.868 81.9307C206.435 81.5036 206.982 81.0521 207.506 80.5761C211.475 77.0304 214.306 72.3841 215.641 67.225C216.976 62.0659 216.754 56.6258 215.004 51.5929ZM207.049 79.0019C206.39 79.6233 205.7 80.2099 204.98 80.7592C204.822 80.8812 204.657 81.0032 204.493 81.1131C204.335 81.2351 204.177 81.351 204.012 81.4608C203.872 81.5585 203.732 81.6561 203.586 81.7477C203.574 81.7598 203.556 81.7659 203.544 81.7781C203.44 81.8514 203.331 81.9185 203.227 81.9856C202.904 82.187 202.57 82.3883 202.241 82.5775C202.162 82.6202 202.089 82.669 202.01 82.7117C201.967 82.7361 201.924 82.7605 201.876 82.7849C201.693 82.8887 201.51 82.9802 201.328 83.0778C201.304 83.0961 201.273 83.1022 201.249 83.1205C201.24 83.122 201.231 83.1262 201.225 83.1327C201.097 83.1999 200.969 83.2609 200.841 83.3219C200.732 83.3768 200.628 83.4317 200.518 83.4805C200.074 83.6941 199.618 83.8954 199.161 84.0846C198.68 84.2798 198.193 84.4568 197.7 84.6215C197.579 84.6642 197.451 84.7131 197.323 84.7497C196.745 84.9327 196.167 85.0975 195.576 85.2317C194.401 85.5184 193.207 85.7203 192.004 85.8358C191.212 85.909 190.409 85.9456 189.605 85.9456C188.826 85.9456 188.053 85.9151 187.28 85.8419C185.901 85.7154 184.535 85.4746 183.196 85.1219C183.147 85.1096 183.093 85.0975 183.044 85.0853C181.946 84.7981 180.869 84.4311 179.824 83.987C179.77 83.9626 179.709 83.9442 179.66 83.9198C179.599 83.8954 179.544 83.8771 179.495 83.8527C179.435 83.8283 179.38 83.8039 179.325 83.7795C178.869 83.5782 178.424 83.3585 177.98 83.1327L177.773 83.0229C177.377 82.8154 176.988 82.6018 176.604 82.3639C176.471 82.2907 176.331 82.2053 176.197 82.1198C176.044 82.0283 175.892 81.9307 175.746 81.833C175.71 81.8086 175.673 81.7842 175.637 81.7598C175.296 81.5279 174.949 81.2961 174.62 81.0459C174.389 80.8751 174.164 80.7103 173.939 80.5334C173.792 80.4236 173.646 80.3076 173.506 80.1856C173.415 80.1185 173.324 80.0392 173.232 79.9598C173.111 79.8561 172.989 79.7524 172.867 79.6425C172.679 79.49 172.502 79.3191 172.332 79.1605C171.646 78.5274 170.998 77.855 170.39 77.1469C170.183 76.9151 169.988 76.6832 169.8 76.4391C169.756 76.3911 169.715 76.3401 169.678 76.2866C166.614 72.4087 164.742 67.7206 164.29 62.7943C163.838 57.8679 164.826 52.9162 167.134 48.5433C169.442 44.1704 172.969 40.5653 177.286 38.1678C181.602 35.7704 186.522 34.6842 191.444 35.0418C196.366 35.3994 201.077 37.1854 205.004 40.1818C208.931 43.1781 211.903 47.2554 213.557 51.9162C215.212 56.577 215.477 61.6198 214.322 66.4294C213.166 71.239 210.639 75.6075 207.049 79.0019Z" fill="#3F3D56"/>
<path d="M66.1414 199.988L71.0655 199.988L73.4078 180.948L66.1406 180.948L66.1414 199.988Z" fill="#A0616A"/>
<path d="M64.8857 198.377L74.5828 198.376H74.5832C76.2221 198.376 77.7939 199.029 78.9528 200.191C80.1117 201.353 80.7628 202.928 80.7629 204.571V204.773L64.886 204.773L64.8857 198.377Z" fill="#2F2E41"/>
<path d="M84.6165 199.988L89.5406 199.988L91.8829 180.948L84.6157 180.948L84.6165 199.988Z" fill="#A0616A"/>
<path d="M83.3608 198.377L93.0579 198.376H93.0583C94.6972 198.376 96.269 199.029 97.4279 200.191C98.5868 201.353 99.2379 202.928 99.238 204.571V204.773L83.3611 204.773L83.3608 198.377Z" fill="#2F2E41"/>
<path d="M51.201 124.753C51.604 124.32 51.9075 123.804 52.0901 123.241C52.2727 122.678 52.3299 122.082 52.2578 121.495C52.1857 120.907 51.986 120.343 51.6727 119.841C51.3594 119.339 50.9402 118.912 50.4446 118.591L53.8658 104.617L46.8403 107.127L44.6685 120.012C44.1846 120.882 44.0359 121.9 44.2508 122.873C44.4656 123.846 45.029 124.706 45.8342 125.291C46.6394 125.875 47.6305 126.143 48.6196 126.044C49.6088 125.945 50.5272 125.485 51.201 124.753Z" fill="#9E616A"/>
<path d="M103.47 123.545C103.067 123.112 102.763 122.596 102.581 122.033C102.398 121.47 102.341 120.874 102.413 120.287C102.485 119.699 102.685 119.135 102.998 118.633C103.312 118.131 103.731 117.705 104.226 117.383L100.805 103.409L107.831 105.919L110.002 118.804C110.486 119.674 110.635 120.692 110.42 121.665C110.205 122.638 109.642 123.499 108.837 124.083C108.032 124.667 107.041 124.935 106.051 124.836C105.062 124.737 104.144 124.277 103.47 123.545Z" fill="#9E616A"/>
<path d="M57.6797 114.958L64.5047 195.108L74.4909 194.196L78.4876 132.25L82.0452 156.778L82.7577 195.739L91.7945 195.135L96.8125 153.221L95.5815 112.628L61.2751 109.146L57.6797 114.958Z" fill="#2F2E41"/>
<path d="M76.4541 42.0224C82.1738 42.0224 86.8105 37.3741 86.8105 31.6401C86.8105 25.9061 82.1738 21.2578 76.4541 21.2578C70.7344 21.2578 66.0977 25.9061 66.0977 31.6401C66.0977 37.3741 70.7344 42.0224 76.4541 42.0224Z" fill="#A0616A"/>
<path d="M73.1743 23.3343C73.1743 23.3343 78.0073 24.6321 80.5101 25.1512C83.0129 25.6703 82.754 24.1995 82.754 24.1995C82.754 24.1995 86.0336 24.6321 85.8609 24.286C85.6883 23.9399 87.2418 22.123 85.4294 20.0466C83.6171 17.9701 84.1349 16.4128 84.1349 16.4128H82.5814L82.1499 15.8071H79.7334C79.7334 15.8071 77.0617 13.4586 72.315 14.1507C67.5683 14.8428 61.9548 16.6723 61.437 19.5275C61.3667 19.9147 61.2743 20.345 61.1669 20.7994C59.8689 26.2928 62.6268 31.4327 65.4872 36.2956C66.1902 37.4908 69.5905 40.0968 69.5035 38.3088C69.4166 36.5208 66.4426 32.5053 68.5139 32.2457C70.5852 31.9862 74.1237 26.7085 73.1743 23.3343Z" fill="#2F2E41"/>
<path d="M65.6769 45.5689H83.9158L96.8121 113.846C96.8121 113.846 85.5688 114.81 79.1427 117.225C72.7165 119.641 62.0337 111.707 62.0337 111.707L65.6769 45.5689Z" fill="#6C63FF"/>
<path d="M67.9541 53.2793V45.5689L65.889 45.5563L50.8008 55.1732L54.0748 107.863C54.0748 107.863 57.9497 125.441 63.8271 125.259C69.7045 125.077 74.2363 62.4115 67.9541 53.2793Z" fill="#2F2E41"/>
<path d="M55.6472 56.6288L50.8007 55.1732C50.8007 55.1732 47.2129 56.2261 47.2129 59.8498C47.2129 63.4736 44.1216 114.958 44.1216 114.958L53.9418 115.828L56.0489 89.6449L55.6472 56.6288Z" fill="#2F2E41"/>
<path d="M82.5569 50.5892L81.5908 45.5689L84.3642 45.1536L94.4051 49.18C94.4051 49.18 103.442 115.414 99.4255 117.427C95.4092 119.44 92.6974 117.88 92.6974 117.88C92.6974 117.88 79.4871 69.0299 81.8253 62.4267L82.5569 50.5892Z" fill="#2F2E41"/>
<path d="M87.3765 50.1866L89.0901 49.4388C89.0901 49.4388 94.1198 46.9402 96.9735 51.9858C99.8271 57.0314 109.868 113.4 109.868 113.4L101.606 114.958L95.4297 94.6715L87.3765 50.1866Z" fill="#2F2E41"/>
<path d="M153.924 205H0.901634C0.795114 205 0.692957 204.958 0.617636 204.882C0.542315 204.807 0.5 204.704 0.5 204.597C0.5 204.491 0.542315 204.388 0.617636 204.313C0.692957 204.237 0.795114 204.195 0.901634 204.195H153.924C154.031 204.195 154.133 204.237 154.208 204.313C154.284 204.388 154.326 204.491 154.326 204.597C154.326 204.704 154.284 204.807 154.208 204.882C154.133 204.958 154.031 205 153.924 205Z" fill="#CACACA"/>
</g>
<defs>
<clipPath id="clip0_54_3466">
<rect width="363" height="205" fill="white" transform="translate(0.5)"/>
</clipPath>
</defs>
</svg>
